<?xml version="1.0" encoding="UTF-8" standalone="no"?>
<svg
   xmlns:dc="http://purl.org/dc/elements/1.1/"
   xmlns:cc="http://creativecommons.org/ns#"
   xmlns:rdf="http://www.w3.org/1999/02/22-rdf-syntax-ns#"
   xmlns:svg="http://www.w3.org/2000/svg"
   xmlns="http://www.w3.org/2000/svg"
   xmlns:sodipodi="http://sodipodi.sourceforge.net/DTD/sodipodi-0.dtd"
   xmlns:inkscape="http://www.inkscape.org/namespaces/inkscape"
   version="1.1"
   width="24"
   height="24"
   viewBox="0 0 24.00 24.00"
   enable-background="new 0 0 24.00 24.00"
   xml:space="preserve"
   id="svg34"
   sodipodi:docname="amazon-dash-45.svg"
   inkscape:version="0.92.1 r15371"><metadata
     id="metadata40"><rdf:RDF><cc:Work
         rdf:about=""><dc:format>image/svg+xml</dc:format><dc:type
           rdf:resource="http://purl.org/dc/dcmitype/StillImage" /><dc:title></dc:title></cc:Work></rdf:RDF></metadata><defs
     id="defs38" /><sodipodi:namedview
     pagecolor="#ffffff"
     bordercolor="#666666"
     borderopacity="1"
     objecttolerance="10"
     gridtolerance="10"
     guidetolerance="10"
     inkscape:pageopacity="0"
     inkscape:pageshadow="2"
     inkscape:window-width="1169"
     inkscape:window-height="1128"
     id="namedview36"
     showgrid="true"
     showguides="true"
     inkscape:guide-bbox="true"
     inkscape:zoom="32"
     inkscape:cx="12.87375"
     inkscape:cy="13.252407"
     inkscape:window-x="933"
     inkscape:window-y="163"
     inkscape:window-maximized="0"
     inkscape:current-layer="svg34"><inkscape:grid
       type="xygrid"
       id="grid5773" /></sodipodi:namedview><path
     style="fill:#000000;fill-opacity:1;stroke:#210000;stroke-width:0;stroke-linecap:round;stroke-linejoin:round;stroke-miterlimit:4;stroke-dasharray:none;stroke-opacity:1"
     d="m 5.4552734,12.84986 0.00631,0.0063 a 3.9963295,4.0130707 45 0 0 0.033144,5.617394 3.9963295,4.0130707 45 0 0 5.6158167,0.03157 l 0.0016,0.0016 0.04577,-0.04577 7.108948,-7.108949 a 4.0053626,4.0011112 45 0 0 0.164149,-0.148366 4.0053626,4.0011112 45 0 0 -0.0032,-5.6631681 4.0053626,4.0011112 45 0 0 -5.661589,-0.00158 4.0053626,4.0011112 45 0 0 -0.0363,0.039457 l -0.0016,-0.00158 z M 13.236605,6.2238902 a 3.1675564,3.1656671 45 0 1 4.479394,5e-7 3.1675564,3.1656671 45 0 1 0,4.4793943 3.1675564,3.1656671 45 0 1 -4.477816,-0.0016 3.1675564,3.1656671 45 0 1 -0.0016,-4.4778168 z m 0.456146,0.4403638 a 2.5371336,2.5356206 45 0 0 0.0016,3.58762 2.5371336,2.5356206 45 0 0 3.586041,0 2.5371336,2.5356206 45 0 0 0,-3.5860416 2.5371336,2.5356206 45 0 0 -3.58762,-0.00158 z"
     id="path5794"
     inkscape:connector-curvature="0" /></svg>