<?xml version="1.0" encoding="UTF-8" standalone="no"?>
<svg
   xmlns:dc="http://purl.org/dc/elements/1.1/"
   xmlns:cc="http://creativecommons.org/ns#"
   xmlns:rdf="http://www.w3.org/1999/02/22-rdf-syntax-ns#"
   xmlns:svg="http://www.w3.org/2000/svg"
   xmlns="http://www.w3.org/2000/svg"
   xmlns:sodipodi="http://sodipodi.sourceforge.net/DTD/sodipodi-0.dtd"
   xmlns:inkscape="http://www.inkscape.org/namespaces/inkscape"
   version="1.1"
   width="24"
   height="24"
   viewBox="0 0 24.00 24.00"
   enable-background="new 0 0 24.00 24.00"
   xml:space="preserve"
   id="svg34"
   sodipodi:docname="amazon-dash.svg"
   inkscape:version="0.92.1 r15371"><metadata
     id="metadata40"><rdf:RDF><cc:Work
         rdf:about=""><dc:format>image/svg+xml</dc:format><dc:type
           rdf:resource="http://purl.org/dc/dcmitype/StillImage" /></cc:Work></rdf:RDF></metadata><defs
     id="defs38" /><sodipodi:namedview
     pagecolor="#ffffff"
     bordercolor="#666666"
     borderopacity="1"
     objecttolerance="10"
     gridtolerance="10"
     guidetolerance="10"
     inkscape:pageopacity="0"
     inkscape:pageshadow="2"
     inkscape:window-width="1169"
     inkscape:window-height="1128"
     id="namedview36"
     showgrid="true"
     showguides="true"
     inkscape:guide-bbox="true"
     inkscape:zoom="32"
     inkscape:cx="12.87375"
     inkscape:cy="13.252407"
     inkscape:window-x="933"
     inkscape:window-y="163"
     inkscape:window-maximized="0"
     inkscape:current-layer="svg34"><inkscape:grid
       type="xygrid"
       id="grid5773" /></sodipodi:namedview><path
     style="fill:#000000;fill-opacity:1;stroke:#210000;stroke-width:0;stroke-linecap:round;stroke-linejoin:round;stroke-miterlimit:4;stroke-dasharray:none;stroke-opacity:1"
     d="m 6.765625,8.002232 v 0.00893 A 4.0130707,3.9963295 0 0 0 2.8169643,12.006696 4.0130707,3.9963295 0 0 0 6.765625,16 v 0.0022 H 6.830357 16.883929 A 4.0011112,4.0053626 0 0 0 17.10491,16.01336 4.0011112,4.0053626 0 0 0 21.107142,12.006663 4.0011112,4.0053626 0 0 0 17.10491,8.0022 4.0011112,4.0053626 0 0 0 17.05134,8.00443 V 8.0022 Z m 10.1875,0.8169644 a 3.1656671,3.1675564 0 0 1 3.16741,3.1674106 3.1656671,3.1675564 0 0 1 -3.16741,3.16741 3.1656671,3.1675564 0 0 1 -3.165179,-3.16741 3.1656671,3.1675564 0 0 1 3.165179,-3.1674106 z m 0.01116,0.6339284 a 2.5356206,2.5371336 0 0 0 -2.535714,2.5379462 2.5356206,2.5371336 0 0 0 2.535714,2.535714 2.5356206,2.5371336 0 0 0 2.535714,-2.535714 2.5356206,2.5371336 0 0 0 -2.535714,-2.5379462 z"
     id="path5794"
     inkscape:connector-curvature="0" /></svg>