<?xml version="1.0" encoding="UTF-8" standalone="no"?>
<svg
   xmlns:dc="http://purl.org/dc/elements/1.1/"
   xmlns:cc="http://creativecommons.org/ns#"
   xmlns:rdf="http://www.w3.org/1999/02/22-rdf-syntax-ns#"
   xmlns:svg="http://www.w3.org/2000/svg"
   xmlns="http://www.w3.org/2000/svg"
   xmlns:sodipodi="http://sodipodi.sourceforge.net/DTD/sodipodi-0.dtd"
   xmlns:inkscape="http://www.inkscape.org/namespaces/inkscape"
   version="1.1"
   width="24"
   height="24"
   viewBox="0 0 24 24"
   id="svg3766"
   sodipodi:docname="home-simple-all-floors.svg"
   inkscape:version="0.92.1 r15371">
  <metadata
     id="metadata3772">
    <rdf:RDF>
      <cc:Work
         rdf:about="">
        <dc:format>image/svg+xml</dc:format>
        <dc:type
           rdf:resource="http://purl.org/dc/dcmitype/StillImage" />
        <dc:title></dc:title>
      </cc:Work>
    </rdf:RDF>
  </metadata>
  <defs
     id="defs3770" />
  <sodipodi:namedview
     pagecolor="#ffffff"
     bordercolor="#666666"
     borderopacity="1"
     objecttolerance="10"
     gridtolerance="10"
     guidetolerance="10"
     inkscape:pageopacity="0"
     inkscape:pageshadow="2"
     inkscape:window-width="1991"
     inkscape:window-height="1146"
     id="namedview3768"
     showgrid="true"
     inkscape:zoom="32"
     inkscape:cx="19.739737"
     inkscape:cy="10.814726"
     inkscape:window-x="349"
     inkscape:window-y="94"
     inkscape:window-maximized="0"
     inkscape:current-layer="svg3766"
     inkscape:snap-grids="true"
     showguides="true"
     inkscape:guide-bbox="true">
    <inkscape:grid
       type="xygrid"
       id="grid88"
       spacingx="0.5"
       spacingy="0.5"
       empspacing="2"
       dotted="false" />
    <sodipodi:guide
       position="9.5,12"
       orientation="0,1"
       id="guide4595"
       inkscape:locked="false" />
  </sodipodi:namedview>
  <path
     style="color:#000000;font-style:normal;font-variant:normal;font-weight:normal;font-stretch:normal;font-size:medium;line-height:normal;font-family:sans-serif;font-variant-ligatures:normal;font-variant-position:normal;font-variant-caps:normal;font-variant-numeric:normal;font-variant-alternates:normal;font-feature-settings:normal;text-indent:0;text-align:start;text-decoration:none;text-decoration-line:none;text-decoration-style:solid;text-decoration-color:#000000;letter-spacing:normal;word-spacing:normal;text-transform:none;writing-mode:lr-tb;direction:ltr;text-orientation:mixed;dominant-baseline:auto;baseline-shift:baseline;text-anchor:start;white-space:normal;shape-padding:0;clip-rule:nonzero;display:inline;overflow:visible;visibility:visible;opacity:1;isolation:auto;mix-blend-mode:normal;color-interpolation:sRGB;color-interpolation-filters:linearRGB;solid-color:#000000;solid-opacity:1;vector-effect:none;fill:#000000;fill-opacity:1;fill-rule:nonzero;stroke:none;stroke-width:2;stroke-linecap:butt;stroke-linejoin:round;stroke-miterlimit:4;stroke-dasharray:none;stroke-dashoffset:0;stroke-opacity:1;color-rendering:auto;image-rendering:auto;shape-rendering:auto;text-rendering:auto;enable-background:accumulate"
     d="M 11.953125 2.0019531 A 1.0001 1.0001 0 0 0 11.316406 2.2695312 L 3.3164062 9.7695312 A 1.0001 1.0001 0 0 0 3 10.5 L 3 20 A 1.0001 1.0001 0 0 0 4 21 L 20 21 A 1.0001 1.0001 0 0 0 21 20 L 21 10.5 A 1.0001 1.0001 0 0 0 20.683594 9.7695312 L 12.683594 2.2695312 A 1.0001 1.0001 0 0 0 11.953125 2.0019531 z M 12 4.3710938 L 19 10.933594 L 19 19 L 5 19 L 5 10.933594 L 12 4.3710938 z M 12 5.71875 L 7.5 10 L 16.5 10 L 12 5.71875 z M 6 11 L 6 14 L 18 14 L 18 11 L 6 11 z M 6 15 L 6 18 L 18 18 L 18 15 L 6 15 z "
     id="path4608" />
</svg>
