<?xml version="1.0" encoding="UTF-8" standalone="no"?>
<svg
   xmlns:dc="http://purl.org/dc/elements/1.1/"
   xmlns:cc="http://creativecommons.org/ns#"
   xmlns:rdf="http://www.w3.org/1999/02/22-rdf-syntax-ns#"
   xmlns:svg="http://www.w3.org/2000/svg"
   xmlns="http://www.w3.org/2000/svg"
   xmlns:sodipodi="http://sodipodi.sourceforge.net/DTD/sodipodi-0.dtd"
   xmlns:inkscape="http://www.inkscape.org/namespaces/inkscape"
   version="1.1"
   width="24"
   height="24"
   viewBox="0 0 24.00 24.00"
   enable-background="new 0 0 24.00 24.00"
   xml:space="preserve"
   id="svg34"
   sodipodi:docname="template.svg"><metadata
     id="metadata40"><rdf:RDF><cc:Work
         rdf:about=""><dc:format>image/svg+xml</dc:format><dc:type
           rdf:resource="http://purl.org/dc/dcmitype/StillImage" /></cc:Work></rdf:RDF></metadata><defs
     id="defs38" /><sodipodi:namedview
     pagecolor="#ffffff"
     bordercolor="#666666"
     borderopacity="1"
     objecttolerance="10"
     gridtolerance="10"
     guidetolerance="10"
     inkscape:pageopacity="0"
     inkscape:pageshadow="2"
     inkscape:window-width="640"
     inkscape:window-height="480"
     id="namedview36"
     showgrid="false" /><path
     fill="#5389A4"
     fill-opacity="0.501961"
     stroke-linejoin="round"
     d="M 0,0L 24,0L 24,24L 0,24L 0,0 Z M 2,2L 2,22L 22,22L 22,2L 2,2 Z "
     id="path20" /><ellipse
     fill="#5389A4"
     fill-opacity="1"
     stroke-linejoin="round"
     cx="12"
     cy="12"
     rx="10"
     ry="10"
     id="ellipse22" /><path
     fill="#5389A4"
     fill-opacity="1"
     stroke-linejoin="round"
     d="M 12,2C 17.5228,2 22,6.47716 22,12C 22,17.5228 17.5228,22 12,22C 6.47715,22 2,17.5228 2,12C 2,6.47716 6.47715,2 12,2 Z M 12,4C 7.58172,4 4,7.58172 4,12C 4,16.4183 7.58172,20 12,20C 16.4183,20 20,16.4183 20,12C 20,7.58172 16.4183,4 12,4 Z "
     id="path24" /><path
     fill="#5389A4"
     fill-opacity="1"
     stroke-linejoin="round"
     d="M 4,2.00001L 20,2.00001C 21.1046,2.00001 22,2.89543 22,4L 22,20C 22,21.1046 21.1046,22 20,22L 4,22C 2.89543,22 2,21.1046 2,20L 2,4C 2,2.89543 2.89543,2.00001 4,2.00001 Z "
     id="path26" /><path
     fill="#5389A4"
     fill-opacity="1"
     stroke-linejoin="round"
     d="M 4,2L 20,2C 21.1046,2 22,2.89543 22,4L 22,20C 22,21.1046 21.1046,22 20,22L 4,22C 2.89543,22 2,21.1046 2,20L 2,4C 2,2.89543 2.89543,2 4,2 Z M 4,4L 4,20L 20,20L 20,4L 4,4 Z "
     id="path28" /><path
     fill="#5389A4"
     fill-opacity="1"
     stroke-linejoin="round"
     d="M 0.911342,-0.911345L 24.9113,23.0887L 23.6385,24.3614L -0.361451,0.361448L 0.911342,-0.911345 Z "
     id="path30" /><path
     fill="#5389A4"
     fill-opacity="1"
     stroke-linejoin="round"
     d="M 2,5.26848L 3.27711,4L 20,20.7229L 18.7315,22L 2,5.26848 Z "
     id="path32" /></svg>