<?xml version="1.0" encoding="UTF-8" standalone="no"?>
<svg
   xmlns:dc="http://purl.org/dc/elements/1.1/"
   xmlns:cc="http://creativecommons.org/ns#"
   xmlns:rdf="http://www.w3.org/1999/02/22-rdf-syntax-ns#"
   xmlns:svg="http://www.w3.org/2000/svg"
   xmlns="http://www.w3.org/2000/svg"
   xmlns:sodipodi="http://sodipodi.sourceforge.net/DTD/sodipodi-0.dtd"
   xmlns:inkscape="http://www.inkscape.org/namespaces/inkscape"
   version="1.1"
   width="24"
   height="24"
   viewBox="0 0 24 24"
   id="svg3766"
   sodipodi:docname="door-open.svg"
   inkscape:version="0.92.1 r15371">
  <metadata
     id="metadata3772">
    <rdf:RDF>
      <cc:Work
         rdf:about="">
        <dc:format>image/svg+xml</dc:format>
        <dc:type
           rdf:resource="http://purl.org/dc/dcmitype/StillImage" />
        <dc:title></dc:title>
      </cc:Work>
    </rdf:RDF>
  </metadata>
  <defs
     id="defs3770" />
  <sodipodi:namedview
     pagecolor="#ffffff"
     bordercolor="#666666"
     borderopacity="1"
     objecttolerance="10"
     gridtolerance="10"
     guidetolerance="10"
     inkscape:pageopacity="0"
     inkscape:pageshadow="2"
     inkscape:window-width="1991"
     inkscape:window-height="1146"
     id="namedview3768"
     showgrid="true"
     inkscape:zoom="32"
     inkscape:cx="6.0367671"
     inkscape:cy="10.680209"
     inkscape:window-x="159"
     inkscape:window-y="95"
     inkscape:window-maximized="0"
     inkscape:current-layer="svg3766"
     inkscape:snap-grids="false"
     showguides="true"
     inkscape:guide-bbox="true">
    <inkscape:grid
       type="xygrid"
       id="grid88"
       spacingx="0.5"
       spacingy="0.5"
       empspacing="2"
       dotted="false" />
  </sodipodi:namedview>
  <path
     style="color:#000000;font-style:normal;font-variant:normal;font-weight:normal;font-stretch:normal;font-size:medium;line-height:normal;font-family:sans-serif;font-variant-ligatures:normal;font-variant-position:normal;font-variant-caps:normal;font-variant-numeric:normal;font-variant-alternates:normal;font-feature-settings:normal;text-indent:0;text-align:start;text-decoration:none;text-decoration-line:none;text-decoration-style:solid;text-decoration-color:#000000;letter-spacing:normal;word-spacing:normal;text-transform:none;writing-mode:lr-tb;direction:ltr;text-orientation:mixed;dominant-baseline:auto;baseline-shift:baseline;text-anchor:start;white-space:normal;shape-padding:0;clip-rule:nonzero;display:inline;overflow:visible;visibility:visible;opacity:1;isolation:auto;mix-blend-mode:normal;color-interpolation:sRGB;color-interpolation-filters:linearRGB;solid-color:#000000;solid-opacity:1;vector-effect:none;fill:#000000;fill-opacity:1;fill-rule:nonzero;stroke:none;stroke-width:1px;stroke-linecap:butt;stroke-linejoin:round;stroke-miterlimit:4;stroke-dasharray:none;stroke-dashoffset:0;stroke-opacity:1;color-rendering:auto;image-rendering:auto;shape-rendering:auto;text-rendering:auto;enable-background:accumulate"
     d="M 7.5 2 A 0.50005 0.50005 0 0 0 7 2.5 L 7 19 L 8 19 L 8 3 L 14.445312 3 L 9.4003906 4.9765625 C 9.1795159 5.0631215 9.0019751 5.3566729 9.0019531 5.6328125 L 9.0019531 21.632812 C 9.0019751 21.908935 9.1795159 22.063065 9.4003906 21.976562 L 16.599609 19.15625 C 16.820484 19.06969 16.999978 18.77614 17 18.5 L 17 18 L 17 2.5 A 0.50005 0.50005 0 0 0 16.970703 2.3320312 C 16.96789 2.3240856 16.966106 2.3161175 16.962891 2.3085938 C 16.962281 2.3071684 16.961561 2.3060974 16.960938 2.3046875 A 0.50005 0.50005 0 0 0 16.5 2 L 8 2 L 7.5 2 z M 16 3.390625 L 16 10.390625 L 9.8007812 12.820312 L 9.8007812 5.8203125 L 16 3.390625 z M 11.119141 13.324219 A 0.36382522 0.54975013 23.781282 0 1 11 14.349609 L 10.201172 14.664062 A 0.36382522 0.54975013 23.781282 1 1 10.201172 13.664062 L 11 13.349609 A 0.36382522 0.54975013 23.781282 0 1 11.119141 13.324219 z "
     id="path5108" />
</svg>
