<?xml version="1.0" encoding="UTF-8" standalone="no"?>
<svg
   xmlns:dc="http://purl.org/dc/elements/1.1/"
   xmlns:cc="http://creativecommons.org/ns#"
   xmlns:rdf="http://www.w3.org/1999/02/22-rdf-syntax-ns#"
   xmlns:svg="http://www.w3.org/2000/svg"
   xmlns="http://www.w3.org/2000/svg"
   xmlns:sodipodi="http://sodipodi.sourceforge.net/DTD/sodipodi-0.dtd"
   xmlns:inkscape="http://www.inkscape.org/namespaces/inkscape"
   version="1.1"
   width="24"
   height="24"
   viewBox="0 0 24.00 24.00"
   enable-background="new 0 0 24.00 24.00"
   xml:space="preserve"
   id="svg4697"
   sodipodi:docname="philips-hue-white-and-color.svg"
   inkscape:version="0.92.1 r15371"><metadata
     id="metadata4703"><rdf:RDF><cc:Work
         rdf:about=""><dc:format>image/svg+xml</dc:format><dc:type
           rdf:resource="http://purl.org/dc/dcmitype/StillImage" /><dc:title /></cc:Work></rdf:RDF></metadata><defs
     id="defs4701" /><sodipodi:namedview
     pagecolor="#ffffff"
     bordercolor="#666666"
     borderopacity="1"
     objecttolerance="10"
     gridtolerance="10"
     guidetolerance="10"
     inkscape:pageopacity="0"
     inkscape:pageshadow="2"
     inkscape:window-width="1435"
     inkscape:window-height="976"
     id="namedview4699"
     showgrid="true"
     inkscape:zoom="19.666667"
     inkscape:cx="8.0447133"
     inkscape:cy="12.059848"
     inkscape:window-x="212"
     inkscape:window-y="179"
     inkscape:window-maximized="0"
     inkscape:current-layer="svg4697"
     showguides="true"
     inkscape:guide-bbox="true"><inkscape:grid
       type="xygrid"
       id="grid4705" /><sodipodi:guide
       position="12,12"
       orientation="1,0"
       id="guide4926"
       inkscape:locked="false" /></sodipodi:namedview><g
     id="g4913"
     transform="matrix(0.83723074,0,0,0.8346142,1.9584678,1.9547449)"><path
       style="stroke-width:0.7514047"
       d="m 11.990234,2.9960938 c -1.313255,7.502e-4 -3.3669519,0.1838926 -4.6425778,0.9941406 -1.185316,0.7524803 0.088373,2.9994212 0.6445313,4.1757812 0.012041,0.027008 0.023867,0.053367 0.035156,0.078125 1.3358323,0.4688935 6.0011435,0.6345426 8.0000005,-0.1171875 0.0068,-0.013504 0.01276,-0.026761 0.01953,-0.041016 0.572715,-1.195866 1.76715,-3.3597279 0.607422,-4.0957031 -1.276378,-0.8094974 -3.32977,-0.99339 -4.64453,-0.9941402 z m 3.736328,6.0097656 c -1.268852,0.3316015 -2.904976,0.3886719 -3.845703,0.3886718 -1.41109,0 -2.7370071,-0.1175827 -3.5957028,-0.3066406 C 9.0129027,11.761709 9.7304688,16.5 9.7304688,16.5 c 0,0 0.1041057,0.75 0.7656252,0.75 h 3.009765 c 0,0 0.55596,-0.0415 0.763672,-0.761719 0,0 0.718749,-4.804852 1.457031,-7.4824216 z M 10.496094,18 v 1.5 c 0,0 -0.03206,0.75 0.736328,0.75 0,0 0.0021,0.753906 0.753906,0.753906 h 0.02539 c 0.751829,0 0.75,-0.753906 0.75,-0.753906 0.767633,0 0.74414,-0.75 0.74414,-0.75 V 18 Z"
       transform="matrix(1.3287595,0,0,1.3329252,-3.9459837,-3.9926541)"
       id="path4907"
       inkscape:connector-curvature="0" /></g></svg>