<?xml version="1.0" encoding="UTF-8" standalone="no"?>
<svg
   xmlns:dc="http://purl.org/dc/elements/1.1/"
   xmlns:cc="http://creativecommons.org/ns#"
   xmlns:rdf="http://www.w3.org/1999/02/22-rdf-syntax-ns#"
   xmlns:svg="http://www.w3.org/2000/svg"
   xmlns="http://www.w3.org/2000/svg"
   xmlns:sodipodi="http://sodipodi.sourceforge.net/DTD/sodipodi-0.dtd"
   xmlns:inkscape="http://www.inkscape.org/namespaces/inkscape"
   version="1.1"
   width="24"
   height="24"
   viewBox="0 0 24.00 24.00"
   enable-background="new 0 0 24.00 24.00"
   xml:space="preserve"
   id="svg4697"
   sodipodi:docname="philips-hue-gu10.svg"
   inkscape:version="0.92.1 r15371"><metadata
     id="metadata4703"><rdf:RDF><cc:Work
         rdf:about=""><dc:format>image/svg+xml</dc:format><dc:type
           rdf:resource="http://purl.org/dc/dcmitype/StillImage" /><dc:title></dc:title></cc:Work></rdf:RDF></metadata><defs
     id="defs4701" /><sodipodi:namedview
     pagecolor="#ffffff"
     bordercolor="#666666"
     borderopacity="1"
     objecttolerance="10"
     gridtolerance="10"
     guidetolerance="10"
     inkscape:pageopacity="0"
     inkscape:pageshadow="2"
     inkscape:window-width="1435"
     inkscape:window-height="976"
     id="namedview4699"
     showgrid="true"
     inkscape:zoom="19.666667"
     inkscape:cx="8.2953465"
     inkscape:cy="12.396991"
     inkscape:window-x="212"
     inkscape:window-y="179"
     inkscape:window-maximized="0"
     inkscape:current-layer="svg4697"
     showguides="true"
     inkscape:guide-bbox="true"><inkscape:grid
       type="xygrid"
       id="grid4705" /><sodipodi:guide
       position="12,12"
       orientation="1,0"
       id="guide4926"
       inkscape:locked="false" /></sodipodi:namedview><g
     id="g5008"
     transform="matrix(-0.75361462,0,0,0.75361462,21.412549,3.0218549)"><path
       style="fill:#010202;stroke-width:0.7536146"
       d="M 12.183594 3 C 8.1005097 3 4.7890625 4.0632647 4.7890625 5.3730469 C 4.7890625 6.6828291 8.1012634 7.7460938 12.183594 7.7460938 C 16.268185 7.7460938 19.580078 6.6828291 19.580078 5.3730469 C 19.580078 4.0632647 16.267431 3 12.183594 3 z M 12.183594 3.9667969 C 15.549237 3.9667969 18.279297 4.5975774 18.279297 5.3730469 C 18.279297 6.1507772 15.549237 6.7773438 12.183594 6.7773438 C 8.8164436 6.7773438 6.0878906 6.1507772 6.0878906 5.3730469 C 6.0878906 4.5975774 8.8164436 3.9667969 12.183594 3.9667969 z M 19.166016 7.0878906 C 17.639946 8.0479957 14.868044 8.5 12.207031 8.5 C 9.5490325 8.5 6.7826826 8.0496411 5.2558594 7.0917969 C 5.9499384 11.577311 8.0350376 13.311904 8.2128906 13.498047 C 8.4043087 13.697001 8.7910156 14.175633 8.7910156 14.832031 L 8.7910156 18.744141 C 8.7910156 18.852661 9.8630532 19.664062 11.060547 19.664062 L 12.935547 19.664062 C 14.017737 19.664062 15.572266 18.855676 15.572266 18.744141 L 15.572266 14.832031 C 15.572266 14.264559 16.008542 13.635205 16.15625 13.498047 C 16.293408 13.369179 18.444053 11.583202 19.166016 7.0878906 z M 9.734375 19.775391 C 9.5263774 19.775391 9.3574219 19.944346 9.3574219 20.152344 L 9.3574219 20.734375 C 9.3574219 20.942373 9.5263774 21.113281 9.734375 21.113281 L 10.486328 21.113281 C 10.694326 21.113281 10.863281 20.942373 10.863281 20.734375 L 10.863281 20.152344 C 10.863281 19.944346 10.694326 19.775391 10.486328 19.775391 L 9.734375 19.775391 z M 13.501953 19.775391 C 13.293955 19.775391 13.125 19.944346 13.125 20.152344 L 13.125 20.734375 C 13.125754 20.942373 13.295909 21.113281 13.503906 21.113281 L 14.253906 21.113281 C 14.461904 21.113281 14.630859 20.942373 14.630859 20.734375 L 14.630859 20.152344 C 14.630859 19.944346 14.461904 19.775391 14.253906 19.775391 L 13.501953 19.775391 z "
       transform="matrix(-1.3269382,0,0,1.3269382,28.413128,-4.0098146)"
       id="path4983" /><g
       id="g4989" /><g
       id="g4993" /></g></svg>