<?xml version="1.0" encoding="UTF-8" standalone="no"?>
<svg
   xmlns:dc="http://purl.org/dc/elements/1.1/"
   xmlns:cc="http://creativecommons.org/ns#"
   xmlns:rdf="http://www.w3.org/1999/02/22-rdf-syntax-ns#"
   xmlns:svg="http://www.w3.org/2000/svg"
   xmlns="http://www.w3.org/2000/svg"
   xmlns:sodipodi="http://sodipodi.sourceforge.net/DTD/sodipodi-0.dtd"
   xmlns:inkscape="http://www.inkscape.org/namespaces/inkscape"
   version="1.1"
   width="24"
   height="24"
   viewBox="0 0 24.00 24.00"
   enable-background="new 0 0 24.00 24.00"
   xml:space="preserve"
   id="svg4697"
   sodipodi:docname="philips-hue-bridge-v2.svg"
   inkscape:version="0.92.1 r15371"><metadata
     id="metadata4703"><rdf:RDF><cc:Work
         rdf:about=""><dc:format>image/svg+xml</dc:format><dc:type
           rdf:resource="http://purl.org/dc/dcmitype/StillImage" /><dc:title /></cc:Work></rdf:RDF></metadata><defs
     id="defs4701" /><sodipodi:namedview
     pagecolor="#ffffff"
     bordercolor="#666666"
     borderopacity="1"
     objecttolerance="10"
     gridtolerance="10"
     guidetolerance="10"
     inkscape:pageopacity="0"
     inkscape:pageshadow="2"
     inkscape:window-width="1435"
     inkscape:window-height="976"
     id="namedview4699"
     showgrid="true"
     inkscape:zoom="19.666667"
     inkscape:cx="15.503782"
     inkscape:cy="9.8269607"
     inkscape:window-x="212"
     inkscape:window-y="179"
     inkscape:window-maximized="0"
     inkscape:current-layer="svg4697"><inkscape:grid
       type="xygrid"
       id="grid4705" /></sodipodi:namedview><g
     id="g4872"
     transform="matrix(0.83333333,0,0,0.83333333,2.0000001,2.0000001)"><circle
       id="circle4860"
       r="0.89999998"
       cy="4.1999998"
       cx="6.6999998"
       style="fill:none" /><circle
       id="circle4862"
       r="0.89999998"
       cy="4.1999998"
       cx="11.9"
       style="fill:none" /><circle
       id="circle4864"
       r="0.89999998"
       cy="4.1999998"
       cx="17.200001"
       style="fill:none" /><path
       id="path4866"
       d="m 11.9,7.5 c -2.5,0 -4.6,2 -4.6,4.6 0,2.5 2,4.6 4.6,4.6 2.5,0 4.6,-2 4.6,-4.6 0,-2.5 -2,-4.6 -4.6,-4.6 z m 0,7.8 c -1.8,0 -3.3,-1.5 -3.3,-3.3 0,-1.8 1.5,-3.3 3.3,-3.3 1.8,0 3.3,1.5 3.3,3.3 0,1.9 -1.5,3.3 -3.3,3.3 z"
       inkscape:connector-curvature="0"
       style="fill:none" /><path
       style="fill:#010202;stroke-width:0.83333331"
       d="M 7 2 C 7 2 5.750651 2.000651 4.5839844 2.5839844 C 3.4173177 3.1673177 2 4.4166667 2 7 L 2 17 C 2 17.083333 2.000651 18.25 2.5839844 19.5 C 3.1673177 20.583333 4.4166667 22 7 22 L 17 22 C 17.083333 22 18.25 21.999349 19.5 21.416016 C 20.583333 20.832682 22 19.583333 22 17 L 22 7 C 22 6.9166667 21.999349 5.75 21.416016 4.5 C 20.832682 3.4166667 19.583333 2 17 2 L 7 2 z M 7.5839844 4.75 C 8.000651 4.75 8.3339844 5.0833333 8.3339844 5.5 C 8.3339844 5.9166667 8.000651 6.25 7.5839844 6.25 C 7.1673177 6.25 6.8339844 5.9166667 6.8339844 5.5 C 6.8339844 5.0833333 7.1673177 4.75 7.5839844 4.75 z M 11.916016 4.75 C 12.332682 4.75 12.666016 5.0833333 12.666016 5.5 C 12.666016 5.9166667 12.332682 6.25 11.916016 6.25 C 11.499349 6.25 11.166016 5.9166667 11.166016 5.5 C 11.166016 5.0833333 11.499349 4.75 11.916016 4.75 z M 16.333984 4.75 C 16.750651 4.75 17.083984 5.0833333 17.083984 5.5 C 17.083984 5.9166667 16.750651 6.25 16.333984 6.25 C 15.917318 6.25 15.583984 5.9166667 15.583984 5.5 C 15.583984 5.0833333 15.917318 4.75 16.333984 4.75 z M 11.916016 8.1660156 C 13.999349 8.1660156 15.75 9.8333333 15.75 12 C 15.75 14.166667 14.082682 15.833984 11.916016 15.833984 C 9.8326823 15.833984 8.0839844 14.166667 8.0839844 12 C 8.0839844 9.9166667 9.749349 8.1660156 11.916016 8.1660156 z M 11.916016 9.3339844 A 2.7499999 2.7499999 0 0 0 9.1660156 12.083984 A 2.7499999 2.7499999 0 0 0 11.916016 14.833984 A 2.7499999 2.7499999 0 0 0 14.666016 12.083984 A 2.7499999 2.7499999 0 0 0 11.916016 9.3339844 z "
       transform="matrix(1.2,0,0,1.2,-2.4000001,-2.4000001)"
       id="path4868" /></g></svg>