<?xml version="1.0" encoding="UTF-8" standalone="no"?>
<svg
   xmlns:dc="http://purl.org/dc/elements/1.1/"
   xmlns:cc="http://creativecommons.org/ns#"
   xmlns:rdf="http://www.w3.org/1999/02/22-rdf-syntax-ns#"
   xmlns:svg="http://www.w3.org/2000/svg"
   xmlns="http://www.w3.org/2000/svg"
   xmlns:sodipodi="http://sodipodi.sourceforge.net/DTD/sodipodi-0.dtd"
   xmlns:inkscape="http://www.inkscape.org/namespaces/inkscape"
   version="1.1"
   width="24"
   height="24"
   viewBox="0 0 24.00 24.00"
   enable-background="new 0 0 24.00 24.00"
   xml:space="preserve"
   id="svg4697"
   sodipodi:docname="philips-hue-br30.svg"
   inkscape:version="0.92.1 r15371"><metadata
     id="metadata4703"><rdf:RDF><cc:Work
         rdf:about=""><dc:format>image/svg+xml</dc:format><dc:type
           rdf:resource="http://purl.org/dc/dcmitype/StillImage" /><dc:title></dc:title></cc:Work></rdf:RDF></metadata><defs
     id="defs4701" /><sodipodi:namedview
     pagecolor="#ffffff"
     bordercolor="#666666"
     borderopacity="1"
     objecttolerance="10"
     gridtolerance="10"
     guidetolerance="10"
     inkscape:pageopacity="0"
     inkscape:pageshadow="2"
     inkscape:window-width="1435"
     inkscape:window-height="976"
     id="namedview4699"
     showgrid="true"
     inkscape:zoom="16"
     inkscape:cx="-1.7263256"
     inkscape:cy="7.5508378"
     inkscape:window-x="212"
     inkscape:window-y="179"
     inkscape:window-maximized="0"
     inkscape:current-layer="svg4697"
     showguides="true"
     inkscape:guide-bbox="true"><inkscape:grid
       type="xygrid"
       id="grid4705" /><sodipodi:guide
       position="12,12"
       orientation="1,0"
       id="guide4926"
       inkscape:locked="false" /></sodipodi:namedview><g
     id="g5075"
     transform="matrix(0.75201914,0,0,0.75201914,2.9757703,2.7101323)"><path
       style="stroke-width:0.75201917"
       d="M 12.001953 2.7109375 C 8.6095948 2.7109375 6.4344997 3.2915928 6.015625 4.28125 C 6.9172959 4.3481797 11.888654 4.6721538 17.988281 4.2773438 C 17.566399 3.2899426 15.392055 2.7109375 12.001953 2.7109375 z M 18.013672 5.0292969 C 15.792959 5.1721805 13.715733 5.2226563 11.929688 5.2226562 C 8.8501691 5.2226562 6.6332107 5.0805803 5.9902344 5.0332031 C 5.9594016 5.8702004 6.0470668 6.2182404 6.9765625 7.2402344 L 7.3359375 7.6367188 C 8.6211382 9.0475067 9.3550383 9.8627314 9.4746094 10.230469 C 9.5926764 10.59219 9.8164063 11.989851 9.8164062 14.693359 C 9.8164062 16.368858 9.9500506 16.782666 10.152344 17 C 11.377383 17.182741 12.628027 17.183493 13.851562 17 C 14.053104 16.782666 14.1875 16.366602 14.1875 14.693359 C 14.1875 11.989851 14.41123 10.592942 14.529297 10.230469 C 14.648868 9.8627314 15.382768 9.0475067 16.667969 7.6367188 L 17.027344 7.2402344 C 17.958343 6.2167363 18.044505 5.8685502 18.013672 5.0292969 z M 10.496094 17.794922 C 10.503614 18.352168 10.51715 19.452785 10.496094 19.765625 C 10.482557 19.979198 10.8869 20.227657 11.273438 20.326172 C 11.595302 20.409646 11.701254 20.586124 11.763672 20.691406 C 11.7742 20.708703 11.787256 20.732568 11.791016 20.736328 C 11.791768 20.736328 11.839068 20.759014 12 20.759766 C 12.160932 20.758262 12.208232 20.736328 12.208984 20.736328 C 12.212744 20.731816 12.226552 20.708703 12.236328 20.691406 C 12.299498 20.586124 12.404698 20.409646 12.726562 20.326172 C 13.1131 20.227657 13.515489 19.979198 13.501953 19.765625 C 13.480145 19.453537 13.494433 18.35292 13.501953 17.794922 C 13.186105 17.831019 12.871288 17.853651 12.554688 17.867188 C 12.364427 17.881476 12.173716 17.892578 12 17.892578 C 11.82478 17.892578 11.635124 17.880724 11.443359 17.867188 C 11.127511 17.853651 10.81119 17.831019 10.496094 17.794922 z "
       transform="matrix(1.3297534,0,0,1.3297534,-3.9570406,-3.6038076)"
       id="path5059" /></g></svg>